<svg id="wave" style="transform:rotate(180deg); transition: 0.3s" viewBox="0 0 1440 200" version="1.1"
    xmlns="http://www.w3.org/2000/svg">
    <defs>
        <defs>
            <style>
              .cls-1 {
                fill: #b86430;
                fill-rule: evenodd;
              }
            </style>
          </defs>
    </defs>
    <path fill="#b86430" d="M0,80L24,76.7C48,73,96,67,144,76.7C192,87,240,113,288,116.7C336,120,384,100,432,80C480,60,528,40,576,43.3C624,47,672,73,720,70C768,67,816,33,864,36.7C912,40,960,80,1008,93.3C1056,107,1104,93,1152,80C1200,67,1248,53,1296,60C1344,67,1392,93,1440,96.7C1488,100,1536,80,1584,60C1632,40,1680,20,1728,30C1776,40,1824,80,1872,106.7C1920,133,1968,147,2016,140C2064,133,2112,107,2160,83.3C2208,60,2256,40,2304,26.7C2352,13,2400,7,2448,3.3C2496,0,2544,0,2592,23.3C2640,47,2688,93,2736,110C2784,127,2832,113,2880,106.7C2928,100,2976,100,3024,83.3C3072,67,3120,33,3168,33.3C3216,33,3264,67,3312,86.7C3360,107,3408,113,3432,116.7L3456,120L3456,200L3432,200C3408,200,3360,200,3312,200C3264,200,3216,200,3168,200C3120,200,3072,200,3024,200C2976,200,2928,200,2880,200C2832,200,2784,200,2736,200C2688,200,2640,200,2592,200C2544,200,2496,200,2448,200C2400,200,2352,200,2304,200C2256,200,2208,200,2160,200C2112,200,2064,200,2016,200C1968,200,1920,200,1872,200C1824,200,1776,200,1728,200C1680,200,1632,200,1584,200C1536,200,1488,200,1440,200C1392,200,1344,200,1296,200C1248,200,1200,200,1152,200C1104,200,1056,200,1008,200C960,200,912,200,864,200C816,200,768,200,720,200C672,200,624,200,576,200C528,200,480,200,432,200C384,200,336,200,288,200C240,200,192,200,144,200C96,200,48,200,24,200L0,200Z"></path>
</svg>