<?xml version="1.0" standalone="no"?>
<svg xmlns:xlink="http://www.w3.org/1999/xlink" id="wave" style="transform:rotate(0deg); transition: 0.3s" viewBox="0 0 1440 220" version="1.1" xmlns="http://www.w3.org/2000/svg"><defs><linearGradient id="sw-gradient-0" x1="0" x2="0" y1="1" y2="0"><stop stop-color="rgba(184, 100, 48, 1)" offset="0%"/><stop stop-color="rgba(184, 100, 48, 1)" offset="100%"/></linearGradient></defs><path style="transform:translate(0, 0px); opacity:1" fill="url(#sw-gradient-0)" d="M0,44L26.7,62.3C53.3,81,107,117,160,143C213.3,169,267,183,320,168.7C373.3,154,427,110,480,102.7C533.3,95,587,125,640,117.3C693.3,110,747,66,800,62.3C853.3,59,907,95,960,124.7C1013.3,154,1067,176,1120,168.7C1173.3,161,1227,125,1280,117.3C1333.3,110,1387,132,1440,121C1493.3,110,1547,66,1600,73.3C1653.3,81,1707,139,1760,165C1813.3,191,1867,183,1920,183.3C1973.3,183,2027,191,2080,165C2133.3,139,2187,81,2240,51.3C2293.3,22,2347,22,2400,40.3C2453.3,59,2507,95,2560,99C2613.3,103,2667,73,2720,51.3C2773.3,29,2827,15,2880,22C2933.3,29,2987,59,3040,62.3C3093.3,66,3147,44,3200,36.7C3253.3,29,3307,37,3360,62.3C3413.3,88,3467,132,3520,124.7C3573.3,117,3627,59,3680,51.3C3733.3,44,3787,88,3813,110L3840,132L3840,220L3813.3,220C3786.7,220,3733,220,3680,220C3626.7,220,3573,220,3520,220C3466.7,220,3413,220,3360,220C3306.7,220,3253,220,3200,220C3146.7,220,3093,220,3040,220C2986.7,220,2933,220,2880,220C2826.7,220,2773,220,2720,220C2666.7,220,2613,220,2560,220C2506.7,220,2453,220,2400,220C2346.7,220,2293,220,2240,220C2186.7,220,2133,220,2080,220C2026.7,220,1973,220,1920,220C1866.7,220,1813,220,1760,220C1706.7,220,1653,220,1600,220C1546.7,220,1493,220,1440,220C1386.7,220,1333,220,1280,220C1226.7,220,1173,220,1120,220C1066.7,220,1013,220,960,220C906.7,220,853,220,800,220C746.7,220,693,220,640,220C586.7,220,533,220,480,220C426.7,220,373,220,320,220C266.7,220,213,220,160,220C106.7,220,53,220,27,220L0,220Z"/></svg>