<svg xmlns="http://www.w3.org/2000/svg" width="1844" height="214" viewBox="0 0 1844 214">
  <defs>
    <style>
      .cls-1 {
        fill: #b86430;
        fill-rule: evenodd;
      }
    </style>
  </defs>
  <path id="Shape" class="cls-1" d="M1843.99,214V157.919c-8.72-5.378-17.91-10.412-26.94-15.254-328.72-176.352-597.19,40.552-911.935,3.116C764.054,129,681.422,43.729,542.822,22.168,386.353-2.173,322.387,74.421,188.1,84.838,126.572,89.612,60.655,90.532-.005,79.717V214h1844ZM1568.56,26.729c-7.5,17.828-49.91,19.045-76.32,20.977a158.11,158.11,0,0,0-22.89,3.027c-6.46,1.429-13.26,2.536-20.27.766-6.45-1.629-8.74-4.466-8.54-7.442a3.047,3.047,0,0,1,.29-3c4.5-7.237,19.52-14,29.35-18.826a133.3,133.3,0,0,1,43.4-12.763C1534.48,7.056,1576.35,8.23,1568.56,26.729Zm74-2.777a49.642,49.642,0,0,1-26.93,7.921c-10.8-.034-21.14-4.687-22.14-10.854-3.09-3.743-2.03-8.428,2.06-12.3,5.64-5.356,16.64-7.964,27.26-8.605,10.95-.661,22.56,1.676,26.63,7.879C1653.14,13.635,1649.05,19.528,1642.56,23.952Z"/>
</svg>
